<svg width="160" height="16" viewBox="0 0 160 16" fill="none" xmlns="http://www.w3.org/2000/svg">
<path d="M11.5 13.75V7C11.5 6.92731 11.4837 6.855 11.4531 6.78906C11.4225 6.72332 11.3777 6.66498 11.3223 6.61816C11.2938 6.59406 11.2668 6.56815 11.2412 6.54102L7.04688 2.09961C6.98464 2.05347 6.91366 2.02134 6.83789 2.00781L6.75 2C6.64221 2 6.53819 2.0356 6.45215 2.09961L2.25879 6.54102C2.23316 6.56815 2.20623 6.59406 2.17773 6.61816C2.12234 6.66498 2.07748 6.72332 2.04688 6.78906C2.01628 6.855 2 6.92731 2 7V13.75C2 14.3023 1.55228 14.75 1 14.75C0.447715 14.75 0 14.3023 0 13.75V7C-1.54141e-08 6.63654 0.0794387 6.27697 0.232422 5.94727C0.369681 5.65161 0.565968 5.38887 0.804688 5.16797L5.05469 0.667969C5.08039 0.640751 5.10813 0.614986 5.13672 0.59082C5.58793 0.209544 6.15927 0 6.75 0L6.9707 0.00976562C7.48193 0.055065 7.96854 0.257263 8.36328 0.59082C8.39187 0.614986 8.41961 0.640751 8.44531 0.667969L12.6953 5.16797C12.934 5.38887 13.1303 5.65161 13.2676 5.94727C13.4206 6.27697 13.5 6.63654 13.5 7V13.75C13.5 14.3023 13.0523 14.75 12.5 14.75C11.9477 14.75 11.5 14.3023 11.5 13.75Z" fill="#FFC981" style="fill:#FFC981;fill:color(display-p3 1.0000 0.7867 0.5078);fill-opacity:1;"/>
<text x="20" y="12.5" font-family="Montserrat, sans-serif" font-size="12" font-weight="300" letter-spacing="1.5" fill="#FFC981">vashremont</text>
</svg>
